<svg id="Layer_1" data-name="Layer 1" xmlns="http://www.w3.org/2000/svg" viewBox="0 0 867.58 135.46"><defs><style>.cls-1,.cls-8{fill:#fff;}.cls-1{stroke:#fff;stroke-miterlimit:10;}.cls-2{fill:#8867ac;}.cls-3{fill:#3a4d81;}.cls-4{fill:#e36324;}.cls-5{fill:#b3252a;}.cls-6{fill:#5aacc5;}.cls-7{fill:#91bd49;}</style></defs><title>pubblylogo2016</title><circle class="cls-1" cx="67.55" cy="67.55" r="67.05"/><circle class="cls-1" cx="213.91" cy="67.9" r="67.05"/><circle class="cls-1" cx="360.57" cy="67.9" r="67.05"/><circle class="cls-1" cx="506.97" cy="67.9" r="67.05"/><circle class="cls-1" cx="653.37" cy="67.9" r="67.05"/><circle class="cls-1" cx="800.03" cy="67.9" r="67.05"/><circle class="cls-2" cx="67.55" cy="67.55" r="66.05"/><circle class="cls-3" cx="213.91" cy="67.9" r="66.05"/><circle class="cls-4" cx="360.57" cy="67.9" r="66.05"/><circle class="cls-5" cx="506.97" cy="67.9" r="66.05"/><circle class="cls-6" cx="653.37" cy="67.9" r="66.05"/><circle class="cls-7" cx="800.03" cy="67.9" r="66.05"/><path class="cls-8" d="M113.14,648.23c0,4.26-2.5,6.91-6.47,6.91s-6.47-2.65-6.47-6.91V556.64c0-4,2.06-7.06,6.91-7.06h25.58c21,0,34,14.7,34,32.93s-14.41,32.63-33.52,32.63h-20v33.08Zm0-44.25h19.11c12.79,0,21.46-9.56,21.46-21.46,0-10.29-5.88-21.76-22-21.76H113.14V604Z" transform="translate(-57.89 -531.81)"/><path class="cls-8" d="M231.23,558.19c0-4.26,2.5-6.91,6.47-6.91s6.47,2.65,6.47,6.91v62.18c0,16.46,11.17,26.17,27.64,26.17s27.64-9.7,27.64-26.17V558.19c0-4.26,2.5-6.91,6.47-6.91s6.47,2.65,6.47,6.91v57.18c0,35.28-22.64,42.34-40.57,42.34s-40.57-7.06-40.57-42.34V558.19Z" transform="translate(-57.89 -531.81)"/><path class="cls-8" d="M393.42,554.09c0-4,2.06-7.06,6.91-7.06h22.79c18.52,0,28.22,13.08,28.22,25,0,11.47-6,20.29-14.55,22.93v0.29c12.64,1.32,22.64,12.05,22.64,25.87,0,16.46-12.2,30.58-34.25,30.58H400.33c-4.85,0-6.91-3.09-6.91-7.06V554.09Zm12.94,37.19h14.7c11,0,17.35-7.35,17.35-16.91S433,558.2,421.5,558.2H406.36v33.08Zm0,49.25h18.23c12.64,0,21.9-7.79,21.9-19.4,0-10.73-7.79-19.26-21.32-19.26H406.36v38.66Z" transform="translate(-57.89 -531.81)"/><path class="cls-8" d="M540.47,554.09c0-4,2.06-7.06,6.91-7.06h22.79c18.52,0,28.22,13.08,28.22,25,0,11.47-6,20.29-14.55,22.93v0.29c12.64,1.32,22.64,12.05,22.64,25.87,0,16.46-12.2,30.58-34.25,30.58H547.38c-4.85,0-6.91-3.09-6.91-7.06V554.09Zm12.94,37.19h14.7c11,0,17.35-7.35,17.35-16.91S580,558.2,568.55,558.2H553.41v33.08Zm0,49.25h18.23c12.64,0,21.9-7.79,21.9-19.4,0-10.73-7.79-19.26-21.32-19.26H553.41v38.66Z" transform="translate(-57.89 -531.81)"/><path class="cls-8" d="M703.82,640.08h27.64c3.68,0,6.32,1.91,6.32,6s-2.65,6-6.32,6H697.8c-4.85,0-6.91-3.09-6.91-7.06V553.5c0-4.26,2.5-6.91,6.47-6.91s6.47,2.65,6.47,6.91v86.58Z" transform="translate(-57.89 -531.81)"/><path class="cls-8" d="M851.45,606.73L823.37,561c-1.47-2.35-2.06-3.82-2.06-5.44,0-3.23,2.65-5.29,5.88-5.29,2.35,0,4.56.88,6.47,4.12l24.26,39.54,24.25-39.54c1.91-3.23,4.12-4.12,6.47-4.12,3.23,0,5.88,2.06,5.88,5.29,0,1.62-.59,3.09-2.06,5.44l-28.08,45.72V649.8c0,4.26-2.5,6.91-6.47,6.91s-6.47-2.65-6.47-6.91V606.73Z" transform="translate(-57.89 -531.81)"/></svg>